<svg width="237" height="187" viewBox="0 0 237 187" fill="none" xmlns="http://www.w3.org/2000/svg">
<rect x="0.666748" width="236.333" height="187" rx="16" fill="#EFEBFF"/>
<rect x="24.6667" y="24" width="188.333" height="139" rx="16.3778" fill="#DED6FF"/>
<rect x="39.0422" y="43.7185" width="66.7905" height="66.7905" rx="9.0418" transform="rotate(-6 39.0422 43.7185)" fill="#B9A3FE"/>
<path fill-rule="evenodd" clip-rule="evenodd" d="M66.4005 64.901C65.813 64.9628 65.3867 65.4892 65.4484 66.0768C65.5102 66.6643 66.0366 67.0906 66.6242 67.0288C67.2118 66.9671 67.638 66.4407 67.5762 65.8532C67.5145 65.2655 66.9881 64.8393 66.4005 64.901ZM62.1237 66.4262C61.869 64.0025 63.6273 61.8311 66.0511 61.5763C68.4749 61.3216 70.6462 63.08 70.9009 65.5037C71.1557 67.9275 69.3974 70.0988 66.9736 70.3535C64.5499 70.6083 62.3785 68.85 62.1237 66.4262Z" fill="#967AE8"/>
<path fill-rule="evenodd" clip-rule="evenodd" d="M84.867 79.8551C84.2794 79.9169 83.8531 80.4433 83.9149 81.0309C83.9766 81.6184 84.503 82.0447 85.0906 81.9829C85.6782 81.9212 86.1044 81.3948 86.0427 80.8073C85.9809 80.2196 85.4545 79.7934 84.867 79.8551ZM80.5902 81.3803C80.3354 78.9566 82.0938 76.7852 84.5175 76.5304C86.9414 76.2757 89.1126 78.0341 89.3674 80.4578C89.6221 82.8816 87.8638 85.0529 85.4401 85.3076C83.0164 85.5624 80.8449 83.8041 80.5902 81.3803Z" fill="#967AE8"/>
<path fill-rule="evenodd" clip-rule="evenodd" d="M86.615 60.017C87.3325 60.598 87.4431 61.6505 86.8621 62.3679L67.2264 86.616C66.6454 87.3335 65.5929 87.4441 64.8755 86.8631C64.1581 86.2822 64.0474 85.2296 64.6284 84.5122L84.2641 60.2641C84.8451 59.5467 85.8976 59.436 86.615 60.017Z" fill="#564491"/>
<rect x="146.137" y="36.5461" width="64.8001" height="64.8001" rx="9.30005" transform="rotate(11 146.137 36.5461)" fill="#654CB5"/>
<path d="M159.927 84.8651C159.183 84.7206 158.598 84.3319 158.171 83.6992C157.744 83.0665 157.603 82.3783 157.748 81.6344L161.691 61.3473C161.765 60.9641 161.957 60.6681 162.267 60.4593C162.577 60.2505 162.923 60.1833 163.306 60.2578C163.69 60.3323 163.986 60.5243 164.194 60.8339C164.403 61.1435 164.47 61.4899 164.396 61.8731L160.452 82.1602L180.74 86.1036C181.123 86.1781 181.419 86.3701 181.628 86.6798C181.836 86.9894 181.904 87.3358 181.829 87.719C181.755 88.1022 181.563 88.3982 181.253 88.607C180.943 88.8159 180.597 88.883 180.214 88.8085L159.927 84.8651ZM163.42 81.3335C163.037 81.259 162.741 81.067 162.532 80.7574C162.323 80.4478 162.256 80.1014 162.331 79.7182L164.171 70.2509C164.246 69.8677 164.438 69.5716 164.747 69.3628C165.057 69.154 165.403 69.0868 165.786 69.1613L168.491 69.6871C168.875 69.7616 169.171 69.9536 169.379 70.2632C169.588 70.5728 169.655 70.9192 169.581 71.3024L167.741 80.7697C167.666 81.1529 167.474 81.4489 167.164 81.6578C166.855 81.8666 166.508 81.9338 166.125 81.8593L163.42 81.3335ZM170.183 82.648C169.799 82.5735 169.503 82.3814 169.295 82.0718C169.086 81.7622 169.019 81.4158 169.093 81.0326L172.248 64.803C172.322 64.4198 172.514 64.1237 172.824 63.9149C173.134 63.7061 173.48 63.6389 173.863 63.7134L176.568 64.2392C176.951 64.3137 177.247 64.5057 177.456 64.8153C177.665 65.1249 177.732 65.4713 177.658 65.8545L174.503 82.0842C174.429 82.4674 174.236 82.7634 173.927 82.9723C173.617 83.1811 173.271 83.2483 172.888 83.1738L170.183 82.648ZM176.945 83.9625C176.562 83.888 176.266 83.6959 176.057 83.3863C175.848 83.0767 175.781 82.7303 175.855 82.3471L176.644 78.2897C176.719 77.9065 176.911 77.6105 177.22 77.4016C177.53 77.1928 177.876 77.1256 178.26 77.2001L180.964 77.7259C181.348 77.8004 181.644 77.9924 181.853 78.302C182.061 78.6116 182.129 78.9581 182.054 79.3413L181.265 83.3987C181.191 83.7819 180.999 84.0779 180.689 84.2867C180.38 84.4956 180.033 84.5627 179.65 84.4882L176.945 83.9625Z" fill="#967AE8"/>
<rect x="88.543" y="86.1262" width="60.1334" height="60.0804" rx="9.86755" fill="#967AE8"/>
<circle cx="118.167" cy="116.5" r="14.5" fill="#B9A3FE"/>
<path d="M118.285 131.237C116.263 131.237 114.363 130.853 112.584 130.086C110.805 129.318 109.258 128.277 107.943 126.961C106.627 125.646 105.585 124.098 104.818 122.32C104.05 120.541 103.667 118.641 103.667 116.619C103.667 114.596 104.05 112.696 104.818 110.917C105.585 109.139 106.627 107.592 107.943 106.276C109.258 104.96 110.805 103.919 112.584 103.151C114.363 102.384 116.263 102 118.285 102C120.308 102 122.208 102.384 123.987 103.151C125.765 103.919 127.312 104.96 128.628 106.276C129.944 107.592 130.985 109.139 131.753 110.917C132.52 112.696 132.904 114.596 132.904 116.619C132.904 118.641 132.52 120.541 131.753 122.32C130.985 124.098 129.944 125.646 128.628 126.961C127.312 128.277 125.765 129.318 123.987 130.086C122.208 130.853 120.308 131.237 118.285 131.237ZM118.285 128.313C121.55 128.313 124.316 127.181 126.581 124.915C128.847 122.649 129.98 119.883 129.98 116.619C129.98 113.354 128.847 110.588 126.581 108.323C124.316 106.057 121.55 104.924 118.285 104.924C115.021 104.924 112.255 106.057 109.989 108.323C107.723 110.588 106.59 113.354 106.59 116.619C106.59 119.883 107.723 122.649 109.989 124.915C112.255 127.181 115.021 128.313 118.285 128.313Z" fill="#654CB5"/>
<path d="M121.935 123.841C122.203 123.598 122.35 123.293 122.374 122.928C122.398 122.562 122.277 122.245 122.009 121.977L117.952 117.701L117.988 117.592H118.354C119.67 117.592 120.76 117.19 121.625 116.386C122.49 115.582 123.02 114.644 123.215 113.572H123.836C124.079 113.572 124.28 113.486 124.439 113.316C124.597 113.145 124.676 112.938 124.676 112.695C124.676 112.451 124.597 112.25 124.439 112.092C124.28 111.933 124.079 111.854 123.836 111.854H123.178C123.105 111.488 122.977 111.141 122.794 110.812C122.612 110.483 122.386 110.161 122.118 109.844H123.836C124.079 109.844 124.28 109.759 124.439 109.588C124.597 109.418 124.676 109.21 124.676 108.967C124.676 108.723 124.597 108.522 124.439 108.364C124.28 108.205 124.079 108.126 123.836 108.126H113.603C113.31 108.126 113.061 108.23 112.854 108.437C112.647 108.644 112.543 108.894 112.543 109.186C112.543 109.478 112.647 109.722 112.854 109.917C113.061 110.112 113.31 110.209 113.603 110.209H118.244C118.878 110.209 119.395 110.368 119.797 110.684C120.199 111.001 120.474 111.391 120.62 111.854H113.384C113.14 111.854 112.939 111.939 112.781 112.11C112.622 112.28 112.543 112.487 112.543 112.731C112.543 112.975 112.622 113.176 112.781 113.334C112.939 113.492 113.14 113.572 113.384 113.572H120.656C120.51 114.059 120.23 114.479 119.816 114.833C119.402 115.186 118.841 115.362 118.135 115.362H115.649C115.333 115.362 115.059 115.436 114.827 115.582C114.596 115.728 114.419 115.935 114.297 116.203C114.175 116.471 114.139 116.745 114.188 117.025C114.236 117.305 114.37 117.567 114.59 117.811L120.072 123.805C120.315 124.073 120.62 124.207 120.985 124.207C121.351 124.207 121.667 124.085 121.935 123.841Z" fill="#654CB5"/>
</svg>
