<svg width="237" height="187" viewBox="0 0 237 187" fill="none" xmlns="http://www.w3.org/2000/svg">
<rect x="0.333374" width="236.333" height="187" rx="16" fill="#EFEBFF"/>
<rect x="24.3334" y="24" width="188.333" height="139" rx="16.3778" fill="#DED6FF"/>
<mask id="mask0_220_939" style="mask-type:alpha" maskUnits="userSpaceOnUse" x="56" y="40" width="36" height="36">
<rect x="56" y="40" width="35.7333" height="35.7333" fill="#D9D9D9"/>
</mask>
<g mask="url(#mask0_220_939)">
<path d="M73.8666 56.3777C77.5888 56.3777 80.7527 55.7945 83.3583 54.6282C85.9638 53.4619 87.2666 52.0599 87.2666 50.4221C87.2666 48.7843 85.9638 47.3823 83.3583 46.216C80.7527 45.0497 77.5888 44.4666 73.8666 44.4666C70.1444 44.4666 66.9805 45.0497 64.3749 46.216C61.7694 47.3823 60.4666 48.7843 60.4666 50.4221C60.4666 52.0599 61.7694 53.4619 64.3749 54.6282C66.9805 55.7945 70.1444 56.3777 73.8666 56.3777ZM73.8666 60.0999C74.884 60.0999 76.1558 59.9944 77.6819 59.7835C79.208 59.5726 80.6783 59.2314 82.0927 58.7599C83.5072 58.2884 84.7231 57.6742 85.7405 56.9174C86.7579 56.1605 87.2666 55.2362 87.2666 54.1443V57.8665C87.2666 58.9584 86.7579 59.8828 85.7405 60.6396C84.7231 61.3965 83.5072 62.0106 82.0927 62.4821C80.6783 62.9536 79.208 63.2948 77.6819 63.5057C76.1558 63.7166 74.884 63.8221 73.8666 63.8221C72.8492 63.8221 71.5774 63.7166 70.0513 63.5057C68.5252 63.2948 67.0549 62.9536 65.6405 62.4821C64.2261 62.0106 63.0101 61.3965 61.9927 60.6396C60.9753 59.8828 60.4666 58.9584 60.4666 57.8665V54.1443C60.4666 55.2362 60.9753 56.1605 61.9927 56.9174C63.0101 57.6742 64.2261 58.2884 65.6405 58.7599C67.0549 59.2314 68.5252 59.5726 70.0513 59.7835C71.5774 59.9944 72.8492 60.0999 73.8666 60.0999ZM73.8666 67.5443C74.884 67.5443 76.1558 67.4389 77.6819 67.2279C79.208 67.017 80.6783 66.6758 82.0927 66.2043C83.5072 65.7328 84.7231 65.1187 85.7405 64.3618C86.7579 63.605 87.2666 62.6806 87.2666 61.5888V65.311C87.2666 66.4028 86.7579 67.3272 85.7405 68.084C84.7231 68.8409 83.5072 69.4551 82.0927 69.9265C80.6783 70.398 79.208 70.7392 77.6819 70.9502C76.1558 71.1611 74.884 71.2665 73.8666 71.2665C72.8492 71.2665 71.5774 71.1611 70.0513 70.9502C68.5252 70.7392 67.0549 70.398 65.6405 69.9265C64.2261 69.4551 63.0101 68.8409 61.9927 68.084C60.9753 67.3272 60.4666 66.4028 60.4666 65.311V61.5888C60.4666 62.6806 60.9753 63.605 61.9927 64.3618C63.0101 65.1187 64.2261 65.7328 65.6405 66.2043C67.0549 66.6758 68.5252 67.017 70.0513 67.2279C71.5774 67.4389 72.8492 67.5443 73.8666 67.5443Z" fill="url(#paint0_linear_220_939)"/>
</g>
<mask id="mask1_220_939" style="mask-type:alpha" maskUnits="userSpaceOnUse" x="56" y="75" width="36" height="37">
<rect x="56" y="75.7334" width="35.7333" height="35.7333" fill="#D9D9D9"/>
</mask>
<g mask="url(#mask1_220_939)">
<path d="M73.8666 92.1113C77.5888 92.1113 80.7527 91.5282 83.3583 90.3619C85.9638 89.1956 87.2666 87.7935 87.2666 86.1557C87.2666 84.518 85.9638 83.1159 83.3583 81.9496C80.7527 80.7833 77.5888 80.2002 73.8666 80.2002C70.1444 80.2002 66.9805 80.7833 64.3749 81.9496C61.7694 83.1159 60.4666 84.518 60.4666 86.1557C60.4666 87.7935 61.7694 89.1956 64.3749 90.3619C66.9805 91.5282 70.1444 92.1113 73.8666 92.1113ZM73.8666 95.8335C74.884 95.8335 76.1558 95.7281 77.6819 95.5171C79.208 95.3062 80.6783 94.965 82.0927 94.4935C83.5072 94.022 84.7231 93.4079 85.7405 92.651C86.7579 91.8942 87.2666 90.9698 87.2666 89.878V93.6002C87.2666 94.692 86.7579 95.6164 85.7405 96.3732C84.7231 97.1301 83.5072 97.7443 82.0927 98.2157C80.6783 98.6872 79.208 99.0284 77.6819 99.2394C76.1558 99.4503 74.884 99.5557 73.8666 99.5557C72.8492 99.5557 71.5774 99.4503 70.0513 99.2394C68.5252 99.0284 67.0549 98.6872 65.6405 98.2157C64.2261 97.7443 63.0101 97.1301 61.9927 96.3732C60.9753 95.6164 60.4666 94.692 60.4666 93.6002V89.878C60.4666 90.9698 60.9753 91.8942 61.9927 92.651C63.0101 93.4079 64.2261 94.022 65.6405 94.4935C67.0549 94.965 68.5252 95.3062 70.0513 95.5171C71.5774 95.7281 72.8492 95.8335 73.8666 95.8335ZM73.8666 103.278C74.884 103.278 76.1558 103.173 77.6819 102.962C79.208 102.751 80.6783 102.409 82.0927 101.938C83.5072 101.466 84.7231 100.852 85.7405 100.095C86.7579 99.3386 87.2666 98.4143 87.2666 97.3224V101.045C87.2666 102.136 86.7579 103.061 85.7405 103.818C84.7231 104.575 83.5072 105.189 82.0927 105.66C80.6783 106.132 79.208 106.473 77.6819 106.684C76.1558 106.895 74.884 107 73.8666 107C72.8492 107 71.5774 106.895 70.0513 106.684C68.5252 106.473 67.0549 106.132 65.6405 105.66C64.2261 105.189 63.0101 104.575 61.9927 103.818C60.9753 103.061 60.4666 102.136 60.4666 101.045V97.3224C60.4666 98.4143 60.9753 99.3386 61.9927 100.095C63.0101 100.852 64.2261 101.466 65.6405 101.938C67.0549 102.409 68.5252 102.751 70.0513 102.962C71.5774 103.173 72.8492 103.278 73.8666 103.278Z" fill="url(#paint1_linear_220_939)"/>
</g>
<mask id="mask2_220_939" style="mask-type:alpha" maskUnits="userSpaceOnUse" x="56" y="111" width="36" height="37">
<rect x="56" y="111.467" width="35.7333" height="35.7333" fill="#D9D9D9"/>
</mask>
<g mask="url(#mask2_220_939)">
<path d="M73.8666 127.844C77.5888 127.844 80.7527 127.261 83.3583 126.095C85.9638 124.929 87.2666 123.527 87.2666 121.889C87.2666 120.251 85.9638 118.849 83.3583 117.683C80.7527 116.516 77.5888 115.933 73.8666 115.933C70.1444 115.933 66.9805 116.516 64.3749 117.683C61.7694 118.849 60.4666 120.251 60.4666 121.889C60.4666 123.527 61.7694 124.929 64.3749 126.095C66.9805 127.261 70.1444 127.844 73.8666 127.844ZM73.8666 131.567C74.884 131.567 76.1558 131.461 77.6819 131.25C79.208 131.039 80.6783 130.698 82.0927 130.227C83.5072 129.755 84.7231 129.141 85.7405 128.384C86.7579 127.627 87.2666 126.703 87.2666 125.611V129.333C87.2666 130.425 86.7579 131.35 85.7405 132.106C84.7231 132.863 83.5072 133.477 82.0927 133.949C80.6783 134.42 79.208 134.762 77.6819 134.973C76.1558 135.183 74.884 135.289 73.8666 135.289C72.8492 135.289 71.5774 135.183 70.0513 134.973C68.5252 134.762 67.0549 134.42 65.6405 133.949C64.2261 133.477 63.0101 132.863 61.9927 132.106C60.9753 131.35 60.4666 130.425 60.4666 129.333V125.611C60.4666 126.703 60.9753 127.627 61.9927 128.384C63.0101 129.141 64.2261 129.755 65.6405 130.227C67.0549 130.698 68.5252 131.039 70.0513 131.25C71.5774 131.461 72.8492 131.567 73.8666 131.567ZM73.8666 139.011C74.884 139.011 76.1558 138.906 77.6819 138.695C79.208 138.484 80.6783 138.143 82.0927 137.671C83.5072 137.2 84.7231 136.585 85.7405 135.829C86.7579 135.072 87.2666 134.147 87.2666 133.056V136.778C87.2666 137.87 86.7579 138.794 85.7405 139.551C84.7231 140.308 83.5072 140.922 82.0927 141.393C80.6783 141.865 79.208 142.206 77.6819 142.417C76.1558 142.628 74.884 142.733 73.8666 142.733C72.8492 142.733 71.5774 142.628 70.0513 142.417C68.5252 142.206 67.0549 141.865 65.6405 141.393C64.2261 140.922 63.0101 140.308 61.9927 139.551C60.9753 138.794 60.4666 137.87 60.4666 136.778V133.056C60.4666 134.147 60.9753 135.072 61.9927 135.829C63.0101 136.585 64.2261 137.2 65.6405 137.671C67.0549 138.143 68.5252 138.484 70.0513 138.695C71.5774 138.906 72.8492 139.011 73.8666 139.011Z" fill="url(#paint2_linear_220_939)"/>
</g>
<path d="M150.15 74.3239C158.525 74.3239 165.644 73.0118 171.506 70.3877C177.369 67.7635 180.3 64.6089 180.3 60.9239C180.3 57.2389 177.369 54.0843 171.506 51.4602C165.644 48.836 158.525 47.5239 150.15 47.5239C141.775 47.5239 134.656 48.836 128.794 51.4602C122.931 54.0843 120 57.2389 120 60.9239C120 64.6089 122.931 67.7635 128.794 70.3877C134.656 73.0118 141.775 74.3239 150.15 74.3239ZM150.15 82.6989C152.439 82.6989 155.3 82.4616 158.734 81.987C162.168 81.5125 165.476 80.7448 168.659 79.6839C171.841 78.6231 174.577 77.2412 176.866 75.5383C179.155 73.8354 180.3 71.7556 180.3 69.2989V77.6739C180.3 80.1306 179.155 82.2104 176.866 83.9133C174.577 85.6162 171.841 86.9981 168.659 88.0589C165.476 89.1198 162.168 89.8875 158.734 90.362C155.3 90.8366 152.439 91.0739 150.15 91.0739C147.861 91.0739 144.999 90.8366 141.565 90.362C138.132 89.8875 134.824 89.1198 131.641 88.0589C128.459 86.9981 125.723 85.6162 123.434 83.9133C121.144 82.2104 120 80.1306 120 77.6739V69.2989C120 71.7556 121.144 73.8354 123.434 75.5383C125.723 77.2412 128.459 78.6231 131.641 79.6839C134.824 80.7448 138.132 81.5125 141.565 81.987C144.999 82.4616 147.861 82.6989 150.15 82.6989ZM150.15 99.4489C152.439 99.4489 155.3 99.2116 158.734 98.737C162.168 98.2625 165.476 97.4948 168.659 96.4339C171.841 95.3731 174.577 93.9912 176.866 92.2883C179.155 90.5854 180.3 88.5056 180.3 86.0489V94.4239C180.3 96.8806 179.155 98.9604 176.866 100.663C174.577 102.366 171.841 103.748 168.659 104.809C165.476 105.87 162.168 106.637 158.734 107.112C155.3 107.587 152.439 107.824 150.15 107.824C147.861 107.824 144.999 107.587 141.565 107.112C138.132 106.637 134.824 105.87 131.641 104.809C128.459 103.748 125.723 102.366 123.434 100.663C121.144 98.9604 120 96.8806 120 94.4239V86.0489C120 88.5056 121.144 90.5854 123.434 92.2883C125.723 93.9912 128.459 95.3731 131.641 96.4339C134.824 97.4948 138.132 98.2625 141.565 98.737C144.999 99.2116 147.861 99.4489 150.15 99.4489Z" fill="url(#paint3_linear_220_939)"/>
<path d="M150.15 116.013C152.439 116.013 155.3 115.776 158.734 115.301C162.168 114.826 165.476 114.059 168.659 112.998C171.841 111.937 174.577 110.555 176.866 108.852C179.155 107.149 180.3 105.069 180.3 102.613V110.988C180.3 113.444 179.155 115.524 176.866 117.227C174.577 118.93 171.841 120.312 168.659 121.373C165.476 122.434 162.168 123.201 158.734 123.676C155.3 124.151 152.439 124.388 150.15 124.388C147.861 124.388 144.999 124.151 141.565 123.676C138.132 123.201 134.824 122.434 131.641 121.373C128.459 120.312 125.723 118.93 123.434 117.227C121.144 115.524 120 113.444 120 110.988V102.613C120 105.069 121.144 107.149 123.434 108.852C125.723 110.555 128.459 111.937 131.641 112.998C134.824 114.059 138.132 114.826 141.565 115.301C144.999 115.776 147.861 116.013 150.15 116.013ZM150.15 132.763C152.439 132.763 155.3 132.526 158.734 132.051C162.168 131.576 165.476 130.809 168.659 129.748C171.841 128.687 174.577 127.305 176.866 125.602C179.155 123.899 180.3 121.819 180.3 119.363V127.738C180.3 130.194 179.155 132.274 176.866 133.977C174.577 135.68 171.841 137.062 168.659 138.123C165.476 139.184 162.168 139.951 158.734 140.426C155.3 140.901 152.439 141.138 150.15 141.138C147.861 141.138 144.999 140.901 141.565 140.426C138.132 139.951 134.824 139.184 131.641 138.123C128.459 137.062 125.723 135.68 123.434 133.977C121.144 132.274 120 130.194 120 127.738V119.363C120 121.819 121.144 123.899 123.434 125.602C125.723 127.305 128.459 128.687 131.641 129.748C134.824 130.809 138.132 131.576 141.565 132.051C144.999 132.526 147.861 132.763 150.15 132.763Z" fill="url(#paint4_linear_220_939)"/>
<path d="M89.4999 54.5283L99.1553 54.5283L99.1554 93.2407L117.622 93.2407" stroke="#564491" stroke-width="1.48889" stroke-linecap="round"/>
<path d="M89.4999 131.951L99.1553 131.951L99.1554 93.2407L117.622 93.2408" stroke="#564491" stroke-width="1.48889" stroke-linecap="round" stroke-dasharray="2.98 2.98"/>
<path d="M89.4999 93.239L99.1556 93.2391L117.623 93.2404" stroke="#564491" stroke-width="1.48889" stroke-linecap="round"/>
<defs>
<linearGradient id="paint0_linear_220_939" x1="73.8666" y1="44.4666" x2="73.8666" y2="71.2665" gradientUnits="userSpaceOnUse">
<stop stop-color="#564491"/>
<stop offset="1" stop-color="#967AE8"/>
</linearGradient>
<linearGradient id="paint1_linear_220_939" x1="73.8666" y1="80.2002" x2="73.8666" y2="107" gradientUnits="userSpaceOnUse">
<stop stop-color="#564491"/>
<stop offset="1" stop-color="#967AE8"/>
</linearGradient>
<linearGradient id="paint2_linear_220_939" x1="73.8666" y1="115.933" x2="73.8666" y2="142.733" gradientUnits="userSpaceOnUse">
<stop stop-color="#564491"/>
<stop offset="1" stop-color="#967AE8"/>
</linearGradient>
<linearGradient id="paint3_linear_220_939" x1="150.15" y1="47.5239" x2="150.15" y2="141.138" gradientUnits="userSpaceOnUse">
<stop stop-color="#564491"/>
<stop offset="1" stop-color="#967AE8"/>
</linearGradient>
<linearGradient id="paint4_linear_220_939" x1="150.15" y1="47.5239" x2="150.15" y2="141.138" gradientUnits="userSpaceOnUse">
<stop stop-color="#564491"/>
<stop offset="1" stop-color="#967AE8"/>
</linearGradient>
</defs>
</svg>
