<svg width="237" height="187" viewBox="0 0 237 187" fill="none" xmlns="http://www.w3.org/2000/svg">
<rect width="236.333" height="187" rx="16" fill="#EFEBFF"/>
<rect x="24" y="24" width="188.333" height="139" rx="16.3778" fill="#DED6FF"/>
<path d="M176.916 90.5892C176.921 86.0659 175.198 81.7127 172.102 78.4244L182.727 63.7535C183.164 63.1491 183.727 62.6464 184.375 62.2795C185.024 61.9126 185.743 61.6902 186.485 61.6275C187.227 61.5648 187.974 61.6632 188.674 61.916C189.375 62.1688 190.013 62.5701 190.545 63.0925C194.185 66.6519 197.074 70.9089 199.042 75.6105C201.01 80.3121 202.016 85.3624 202 90.4616C202 92.3872 201.857 94.3102 201.572 96.2144C201.46 96.9673 201.186 97.6867 200.768 98.3223C200.351 98.958 199.8 99.4946 199.155 99.8949C198.517 100.291 197.8 100.543 197.055 100.633C196.31 100.722 195.555 100.648 194.841 100.415L176.494 94.4346C176.774 93.1719 176.915 91.8825 176.916 90.5892Z" fill="#564491"/>
<path d="M175.806 96.3296L195.015 102.508C195.726 102.736 196.379 103.112 196.93 103.611C197.481 104.11 197.918 104.721 198.21 105.402C198.502 106.083 198.643 106.818 198.623 107.557C198.602 108.297 198.422 109.023 198.094 109.687C195.358 115.181 191.326 119.942 186.337 123.566C181.349 127.19 175.552 129.571 169.438 130.508C168.693 130.621 167.932 130.574 167.208 130.368C166.484 130.163 165.813 129.806 165.241 129.32C164.67 128.835 164.212 128.234 163.898 127.558C163.584 126.881 163.421 126.145 163.422 125.401V107.64C166.267 106.909 168.886 105.495 171.046 103.522C173.206 101.549 174.841 99.0781 175.806 96.3296Z" fill="#564491"/>
<path d="M118.064 107.436C118.388 106.661 118.872 105.966 119.486 105.398C120.099 104.829 120.826 104.4 121.619 104.141L142.499 97.2949C143.718 100.187 145.669 102.706 148.156 104.598C150.643 106.491 153.579 107.69 156.671 108.077V130.03C156.67 130.872 156.489 131.705 156.14 132.471C155.791 133.236 155.282 133.916 154.648 134.465C154.014 135.013 153.27 135.417 152.467 135.649C151.664 135.88 150.821 135.933 149.996 135.805C143.212 134.746 136.78 132.054 131.246 127.955C125.712 123.856 121.238 118.473 118.202 112.259C117.838 111.513 117.636 110.695 117.612 109.863C117.589 109.03 117.743 108.203 118.064 107.436Z" fill="#6F57BC"/>
<path d="M123.614 57.4705C124.206 56.8899 124.917 56.444 125.697 56.163C126.477 55.8821 127.308 55.7727 128.134 55.8424C128.96 55.9121 129.761 56.1592 130.483 56.5669C131.206 56.9746 131.831 57.5333 132.318 58.205L146.544 77.8073C144.907 79.4497 143.61 81.3988 142.726 83.5432C141.842 85.6875 141.388 87.9853 141.391 90.3052C141.391 90.7368 141.412 91.1631 141.442 91.587L118.83 98.9428C118.03 99.2012 117.184 99.2819 116.35 99.1794C115.516 99.077 114.715 98.7937 114.001 98.3494C113.288 97.9051 112.68 97.3104 112.22 96.6068C111.759 95.9032 111.458 95.1076 111.336 94.2753C111.018 92.1592 110.859 90.0224 110.859 87.8826C110.842 82.2164 111.962 76.6045 114.153 71.3802C116.344 66.1559 119.561 61.4256 123.614 57.4705Z" fill="#967AE8"/>
<path d="M159.233 72.6375C156.17 72.634 153.158 73.4266 150.491 74.9379L141.758 62.8914C141.312 62.2779 141.005 61.5749 140.858 60.8309C140.71 60.0869 140.725 59.3197 140.902 58.5821C141.073 57.8586 141.399 57.181 141.857 56.596C142.315 56.011 142.894 55.5325 143.555 55.1937C148.947 52.4455 154.909 51.0089 160.959 51C167.008 50.9912 172.974 52.4105 178.375 55.1429C179.056 55.4872 179.654 55.9758 180.128 56.5748C180.601 57.1738 180.94 57.8689 181.119 58.6119C181.296 59.3443 181.311 60.1065 181.165 60.8456C181.019 61.5847 180.714 62.2831 180.271 62.8923L170.363 76.5581C167.209 74.0159 163.281 72.6323 159.233 72.6375Z" fill="#564491"/>
<path d="M117.789 77.4597C117.789 80.2432 120.045 82.4997 122.829 82.4997C125.612 82.4997 127.869 80.2432 127.869 77.4597C127.869 74.6762 125.612 72.4198 122.829 72.4198C120.045 72.4198 117.789 74.6762 117.789 77.4597ZM80.265 78.4047C80.7869 78.4047 81.21 77.9816 81.21 77.4597C81.21 76.9378 80.7869 76.5147 80.265 76.5147L80.265 78.4047ZM83.9662 76.5147C83.4443 76.5147 83.0212 76.9378 83.0212 77.4597C83.0212 77.9816 83.4443 78.4047 83.9662 78.4047L83.9662 76.5147ZM87.6674 78.4047C88.1893 78.4047 88.6123 77.9816 88.6123 77.4597C88.6123 76.9378 88.1893 76.5147 87.6674 76.5147L87.6674 78.4047ZM91.3686 76.5147C90.8467 76.5147 90.4236 76.9378 90.4236 77.4597C90.4236 77.9816 90.8467 78.4047 91.3686 78.4047L91.3686 76.5147ZM95.0698 78.4047C95.5917 78.4047 96.0147 77.9816 96.0147 77.4597C96.0147 76.9378 95.5917 76.5147 95.0698 76.5147L95.0698 78.4047ZM98.771 76.5147C98.2491 76.5147 97.826 76.9378 97.826 77.4597C97.826 77.9816 98.2491 78.4047 98.771 78.4047L98.771 76.5147ZM102.472 78.4047C102.994 78.4047 103.417 77.9816 103.417 77.4597C103.417 76.9378 102.994 76.5147 102.472 76.5147L102.472 78.4047ZM106.173 76.5147C105.651 76.5147 105.228 76.9378 105.228 77.4597C105.228 77.9816 105.651 78.4047 106.173 78.4047L106.173 76.5147ZM109.875 78.4047C110.396 78.4047 110.82 77.9816 110.82 77.4597C110.82 76.9378 110.396 76.5147 109.875 76.5147L109.875 78.4047ZM113.576 76.5147C113.054 76.5147 112.631 76.9378 112.631 77.4597C112.631 77.9816 113.054 78.4047 113.576 78.4047L113.576 76.5147ZM117.277 78.4047C117.799 78.4047 118.222 77.9816 118.222 77.4597C118.222 76.9378 117.799 76.5147 117.277 76.5147L117.277 78.4047ZM120.978 76.5147C120.456 76.5147 120.033 76.9378 120.033 77.4597C120.033 77.9816 120.456 78.4047 120.978 78.4047L120.978 76.5147ZM78.4144 78.4047L80.265 78.4047L80.265 76.5147L78.4144 76.5147L78.4144 78.4047ZM83.9662 78.4047L87.6674 78.4047L87.6674 76.5147L83.9662 76.5147L83.9662 78.4047ZM91.3686 78.4047L95.0698 78.4047L95.0698 76.5147L91.3686 76.5147L91.3686 78.4047ZM98.771 78.4047L102.472 78.4047L102.472 76.5147L98.771 76.5147L98.771 78.4047ZM106.173 78.4047L109.875 78.4047L109.875 76.5147L106.173 76.5147L106.173 78.4047ZM113.576 78.4047L117.277 78.4047L117.277 76.5147L113.576 76.5147L113.576 78.4047ZM120.978 78.4047L122.829 78.4047L122.829 76.5147L120.978 76.5147L120.978 78.4047Z" fill="#B49AFF"/>
<path d="M132.279 116.519C132.279 119.303 134.535 121.559 137.319 121.559C140.102 121.559 142.358 119.303 142.358 116.519C142.358 113.736 140.102 111.479 137.319 111.479C134.535 111.479 132.279 113.736 132.279 116.519ZM56.0497 117.464C56.5716 117.464 56.9947 117.041 56.9947 116.519C56.9947 115.997 56.5716 115.574 56.0497 115.574L56.0497 117.464ZM59.8296 115.574C59.3077 115.574 58.8847 115.997 58.8847 116.519C58.8847 117.041 59.3077 117.464 59.8296 117.464L59.8296 115.574ZM63.6096 117.464C64.1315 117.464 64.5546 117.041 64.5546 116.519C64.5546 115.997 64.1315 115.574 63.6096 115.574L63.6096 117.464ZM67.3895 115.574C66.8676 115.574 66.4446 115.997 66.4446 116.519C66.4446 117.041 66.8676 117.464 67.3895 117.464L67.3895 115.574ZM71.1695 117.464C71.6914 117.464 72.1145 117.041 72.1145 116.519C72.1145 115.997 71.6914 115.574 71.1695 115.574L71.1695 117.464ZM74.9494 115.574C74.4275 115.574 74.0044 115.997 74.0044 116.519C74.0044 117.041 74.4275 117.464 74.9494 117.464L74.9494 115.574ZM78.7294 117.464C79.2513 117.464 79.6744 117.041 79.6744 116.519C79.6744 115.997 79.2513 115.574 78.7294 115.574L78.7294 117.464ZM82.5093 115.574C81.9874 115.574 81.5643 115.997 81.5643 116.519C81.5643 117.041 81.9874 117.464 82.5093 117.464L82.5093 115.574ZM86.2893 117.464C86.8112 117.464 87.2343 117.041 87.2343 116.519C87.2343 115.997 86.8112 115.574 86.2893 115.574L86.2893 117.464ZM90.0692 115.574C89.5473 115.574 89.1242 115.997 89.1242 116.519C89.1242 117.041 89.5473 117.464 90.0692 117.464L90.0692 115.574ZM93.8492 117.464C94.3711 117.464 94.7941 117.041 94.7941 116.519C94.7941 115.997 94.3711 115.574 93.8492 115.574L93.8492 117.464ZM97.6291 115.574C97.1072 115.574 96.6841 115.997 96.6841 116.519C96.6841 117.041 97.1072 117.464 97.6291 117.464L97.6291 115.574ZM101.409 117.464C101.931 117.464 102.354 117.041 102.354 116.519C102.354 115.997 101.931 115.574 101.409 115.574L101.409 117.464ZM105.189 115.574C104.667 115.574 104.244 115.997 104.244 116.519C104.244 117.041 104.667 117.464 105.189 117.464L105.189 115.574ZM108.969 117.464C109.491 117.464 109.914 117.041 109.914 116.519C109.914 115.997 109.491 115.574 108.969 115.574L108.969 117.464ZM112.749 115.574C112.227 115.574 111.804 115.997 111.804 116.519C111.804 117.041 112.227 117.464 112.749 117.464L112.749 115.574ZM116.529 117.464C117.051 117.464 117.474 117.041 117.474 116.519C117.474 115.997 117.051 115.574 116.529 115.574L116.529 117.464ZM120.309 115.574C119.787 115.574 119.364 115.997 119.364 116.519C119.364 117.041 119.787 117.464 120.309 117.464L120.309 115.574ZM124.089 117.464C124.611 117.464 125.034 117.041 125.034 116.519C125.034 115.997 124.611 115.574 124.089 115.574L124.089 117.464ZM127.869 115.574C127.347 115.574 126.924 115.997 126.924 116.519C126.924 117.041 127.347 117.464 127.869 117.464L127.869 115.574ZM131.649 117.464C132.171 117.464 132.594 117.041 132.594 116.519C132.594 115.997 132.171 115.574 131.649 115.574L131.649 117.464ZM135.429 115.574C134.907 115.574 134.484 115.997 134.484 116.519C134.484 117.041 134.907 117.464 135.429 117.464L135.429 115.574ZM54.1597 117.464L56.0497 117.464L56.0497 115.574L54.1597 115.574L54.1597 117.464ZM59.8296 117.464L63.6096 117.464L63.6096 115.574L59.8296 115.574L59.8296 117.464ZM67.3895 117.464L71.1695 117.464L71.1695 115.574L67.3895 115.574L67.3895 117.464ZM74.9494 117.464L78.7294 117.464L78.7294 115.574L74.9494 115.574L74.9494 117.464ZM82.5093 117.464L86.2893 117.464L86.2893 115.574L82.5093 115.574L82.5093 117.464ZM90.0692 117.464L93.8492 117.464L93.8492 115.574L90.0692 115.574L90.0692 117.464ZM97.6291 117.464L101.409 117.464L101.409 115.574L97.6291 115.574L97.6291 117.464ZM105.189 117.464L108.969 117.464L108.969 115.574L105.189 115.574L105.189 117.464ZM112.749 117.464L116.529 117.464L116.529 115.574L112.749 115.574L112.749 117.464ZM120.309 117.464L124.089 117.464L124.089 115.574L120.309 115.574L120.309 117.464ZM127.869 117.464L131.649 117.464L131.649 115.574L127.869 115.574L127.869 117.464ZM135.429 117.464L137.319 117.464L137.319 115.574L135.429 115.574L135.429 117.464Z" fill="#B49AFF"/>
<path d="M78.4144 95.0994C88.6784 95.0994 96.9991 86.7787 96.9991 76.5147C96.9991 66.2506 88.6784 57.9299 78.4144 57.9299C68.1503 57.9299 59.8297 66.2506 59.8297 76.5147C59.8297 86.7787 68.1503 95.0994 78.4144 95.0994Z" fill="#B9A3FE"/>
<path d="M78.4144 87.5394C84.5032 87.5394 89.4392 82.6034 89.4392 76.5146C89.4392 70.4257 84.5032 65.4897 78.4144 65.4897C72.3255 65.4897 67.3895 70.4257 67.3895 76.5146C67.3895 82.6034 72.3255 87.5394 78.4144 87.5394Z" fill="#8A63FB" fill-opacity="0.39"/>
<path d="M77.243 81.8696C77.0549 81.8696 76.8693 81.8258 76.7011 81.7417C76.5328 81.6575 76.3865 81.5354 76.2737 81.3848L73.3018 77.4224C73.2063 77.2951 73.1368 77.1502 73.0974 76.9961C73.0579 76.8419 73.0491 76.6815 73.0716 76.524C73.0941 76.3665 73.1475 76.2149 73.2285 76.078C73.3096 75.9411 73.4169 75.8215 73.5442 75.726C73.6715 75.6305 73.8163 75.5611 73.9705 75.5216C74.1246 75.4821 74.2851 75.4734 74.4426 75.4959C74.6001 75.5184 74.7517 75.5717 74.8886 75.6528C75.0255 75.7339 75.1451 75.8411 75.2406 75.9684L77.1849 78.5606L82.1786 71.0703C82.2668 70.9377 82.3803 70.8238 82.5125 70.7352C82.6448 70.6465 82.7932 70.5847 82.9493 70.5534C83.1054 70.5221 83.2662 70.5219 83.4224 70.5528C83.5786 70.5836 83.7272 70.645 83.8597 70.7333C83.9922 70.8216 84.1059 70.9352 84.1945 71.0675C84.2831 71.1998 84.3447 71.3483 84.3759 71.5044C84.407 71.6606 84.4071 71.8213 84.3761 71.9775C84.3451 72.1336 84.2836 72.2822 84.1952 72.4146L78.2513 81.33C78.1438 81.4912 77.9992 81.6244 77.8296 81.7182C77.66 81.812 77.4704 81.8638 77.2767 81.8692C77.2655 81.8694 77.2542 81.8696 77.243 81.8696Z" fill="#5431B7"/>
<path d="M52.5847 136.049C62.8488 136.049 71.1695 127.728 71.1695 117.464C71.1695 107.2 62.8488 98.8794 52.5847 98.8794C42.3207 98.8794 34 107.2 34 117.464C34 127.728 42.3207 136.049 52.5847 136.049Z" fill="#B9A3FE"/>
<path d="M52.5847 128.489C58.6736 128.489 63.6096 123.553 63.6096 117.464C63.6096 111.375 58.6736 106.439 52.5847 106.439C46.4959 106.439 41.5599 111.375 41.5599 117.464C41.5599 123.553 46.4959 128.489 52.5847 128.489Z" fill="#8A63FB" fill-opacity="0.39"/>
<path d="M51.4133 122.819C51.2252 122.819 51.0397 122.775 50.8714 122.691C50.7032 122.607 50.5569 122.485 50.444 122.334L47.4721 118.372C47.3767 118.245 47.3072 118.1 47.2677 117.946C47.2282 117.791 47.2195 117.631 47.242 117.473C47.2645 117.316 47.3178 117.164 47.3989 117.027C47.48 116.891 47.5872 116.771 47.7145 116.675C47.8418 116.58 47.9867 116.511 48.1408 116.471C48.295 116.432 48.4554 116.423 48.6129 116.445C48.7705 116.468 48.922 116.521 49.0589 116.602C49.1958 116.683 49.3155 116.791 49.4109 116.918L51.3552 119.51L56.349 112.02C56.4372 111.887 56.5507 111.773 56.6829 111.685C56.8151 111.596 56.9636 111.534 57.1197 111.503C57.2758 111.472 57.4365 111.471 57.5927 111.502C57.749 111.533 57.8976 111.594 58.03 111.683C58.1625 111.771 58.2763 111.885 58.3649 112.017C58.4534 112.149 58.515 112.298 58.5462 112.454C58.5774 112.61 58.5774 112.771 58.5464 112.927C58.5154 113.083 58.4539 113.232 58.3655 113.364L52.4217 122.279C52.3142 122.441 52.1696 122.574 52 122.668C51.8304 122.761 51.6408 122.813 51.4471 122.819C51.4358 122.819 51.4246 122.819 51.4133 122.819Z" fill="#5431B7"/>
</svg>
