<svg width="242" height="41" viewBox="0 0 242 41" fill="none" xmlns="http://www.w3.org/2000/svg">
<path d="M12 3.325C12 1.55769 13.4327 0.125 15.2 0.125H40.8C42.5673 0.125 44 1.55769 44 3.325V8.125H23.2C21.4327 8.125 20 9.55769 20 11.325V32.125H15.2C13.4327 32.125 12 30.6923 12 28.925V3.325Z" fill="#6D42FF"/>
<path d="M20 32.125V36.925C20 38.6923 21.4327 40.125 23.2 40.125H48.8C50.5673 40.125 52 38.6923 52 36.925V11.325C52 9.55769 50.5673 8.125 48.8 8.125H44V28.925C44 30.6923 42.5673 32.125 40.8 32.125H20Z" fill="#6D42FF"/>
<path d="M33.0607 14.1146C32.4749 13.5288 31.5251 13.5288 30.9393 14.1146L25.9896 19.0643C25.4038 19.6501 25.4038 20.5999 25.9896 21.1857L30.9393 26.1354C31.5251 26.7212 32.4749 26.7212 33.0607 26.1354L38.0104 21.1857C38.5962 20.5999 38.5962 19.6501 38.0104 19.0643L33.0607 14.1146Z" fill="#6D42FF"/>
<path d="M66.58 9.2H80.41V12.17H68.11L69.82 10.4V20.18L68.11 18.65H79.87V21.53H68.11L69.82 20V30.5H66.58V9.2ZM82.8918 14.54H86.0718V30.5H82.8918V14.54ZM82.8318 9.05H86.1618V12.23H82.8318V9.05ZM88.9574 14.54H91.8674L91.9874 18.8L91.5974 18.59C91.8574 17.11 92.4474 16.01 93.3674 15.29C94.3074 14.55 95.4474 14.18 96.7874 14.18C98.5074 14.18 99.8374 14.74 100.777 15.86C101.717 16.96 102.187 18.42 102.187 20.24V30.5H99.0074V21.2C99.0074 19.76 98.7674 18.68 98.2874 17.96C97.8074 17.22 97.0174 16.85 95.9174 16.85C94.7574 16.85 93.8374 17.23 93.1574 17.99C92.4774 18.75 92.1374 19.82 92.1374 21.2V30.5H88.9574V14.54ZM106.663 13.52C106.663 12.16 107.043 11.1 107.803 10.34C108.563 9.58 109.713 9.2 111.253 9.2H114.073V11.81H111.673C111.053 11.81 110.593 11.97 110.293 12.29C109.993 12.61 109.843 13.08 109.843 13.7V30.5H106.663V13.52ZM104.443 14.75H113.833V17.33H104.443V14.75ZM120.238 30.86C118.578 30.86 117.248 30.48 116.248 29.72C115.268 28.94 114.778 27.87 114.778 26.51C114.778 25.15 115.188 24.08 116.008 23.3C116.828 22.52 118.118 21.96 119.878 21.62L125.368 20.57C125.368 19.33 125.078 18.41 124.498 17.81C123.938 17.19 123.088 16.88 121.948 16.88C120.948 16.88 120.148 17.11 119.548 17.57C118.948 18.01 118.548 18.67 118.348 19.55L115.048 19.34C115.348 17.72 116.098 16.46 117.298 15.56C118.518 14.64 120.068 14.18 121.948 14.18C124.088 14.18 125.718 14.75 126.838 15.89C127.978 17.03 128.548 18.65 128.548 20.75V26.96C128.548 27.34 128.618 27.61 128.758 27.77C128.898 27.91 129.118 27.98 129.418 27.98H129.988V30.5C129.848 30.52 129.668 30.54 129.448 30.56C129.248 30.58 129.038 30.59 128.818 30.59C127.718 30.59 126.898 30.33 126.358 29.81C125.838 29.27 125.578 28.37 125.578 27.11L125.908 27.26C125.688 28.3 125.048 29.16 123.988 29.84C122.928 30.52 121.678 30.86 120.238 30.86ZM120.778 28.34C121.718 28.34 122.528 28.16 123.208 27.8C123.908 27.42 124.438 26.9 124.798 26.24C125.178 25.58 125.368 24.83 125.368 23.99V22.97L120.718 23.87C119.778 24.05 119.098 24.33 118.678 24.71C118.278 25.09 118.078 25.59 118.078 26.21C118.078 26.89 118.308 27.42 118.768 27.8C119.248 28.16 119.918 28.34 120.778 28.34ZM138.424 30.86C136.904 30.86 135.574 30.52 134.434 29.84C133.294 29.16 132.404 28.19 131.764 26.93C131.144 25.65 130.834 24.18 130.834 22.52C130.834 20.86 131.144 19.4 131.764 18.14C132.404 16.86 133.294 15.88 134.434 15.2C135.574 14.52 136.904 14.18 138.424 14.18C139.704 14.18 140.844 14.41 141.844 14.87C142.864 15.31 143.694 15.97 144.334 16.85C144.974 17.71 145.374 18.75 145.534 19.97L142.234 20.15C142.074 19.13 141.654 18.34 140.974 17.78C140.294 17.22 139.444 16.94 138.424 16.94C137.084 16.94 136.034 17.43 135.274 18.41C134.514 19.39 134.134 20.76 134.134 22.52C134.134 24.28 134.514 25.65 135.274 26.63C136.034 27.61 137.084 28.1 138.424 28.1C139.444 28.1 140.294 27.81 140.974 27.23C141.654 26.65 142.074 25.79 142.234 24.65L145.534 24.83C145.374 26.05 144.974 27.11 144.334 28.01C143.714 28.91 142.894 29.61 141.874 30.11C140.854 30.61 139.704 30.86 138.424 30.86ZM152.856 30.5C151.336 30.5 150.216 30.15 149.496 29.45C148.776 28.75 148.416 27.66 148.416 26.18V10.79H151.596V25.94C151.596 26.66 151.746 27.17 152.046 27.47C152.366 27.75 152.866 27.89 153.546 27.89H155.826V30.5H152.856ZM145.986 14.54H155.826V17.15H145.986V14.54ZM164.149 30.86C162.629 30.86 161.299 30.52 160.159 29.84C159.019 29.16 158.129 28.19 157.489 26.93C156.869 25.67 156.559 24.2 156.559 22.52C156.559 20.84 156.869 19.37 157.489 18.11C158.129 16.85 159.019 15.88 160.159 15.2C161.299 14.52 162.629 14.18 164.149 14.18C165.649 14.18 166.969 14.52 168.109 15.2C169.249 15.88 170.129 16.85 170.749 18.11C171.389 19.37 171.709 20.84 171.709 22.52C171.709 24.2 171.389 25.67 170.749 26.93C170.129 28.19 169.249 29.16 168.109 29.84C166.969 30.52 165.649 30.86 164.149 30.86ZM164.149 28.1C165.489 28.1 166.529 27.61 167.269 26.63C168.029 25.63 168.409 24.26 168.409 22.52C168.409 20.78 168.029 19.42 167.269 18.44C166.529 17.44 165.489 16.94 164.149 16.94C162.809 16.94 161.759 17.43 160.999 18.41C160.239 19.39 159.859 20.76 159.859 22.52C159.859 24.28 160.239 25.65 160.999 26.63C161.759 27.61 162.809 28.1 164.149 28.1ZM173.896 14.54H176.806L176.926 18.77L176.656 18.68C176.876 17.26 177.316 16.22 177.976 15.56C178.636 14.88 179.546 14.54 180.706 14.54H182.236V17.39H180.706C179.886 17.39 179.206 17.53 178.666 17.81C178.146 18.07 177.746 18.47 177.466 19.01C177.206 19.55 177.076 20.24 177.076 21.08V30.5H173.896V14.54Z" fill="black"/>
<path d="M192.43 19.887C193.78 19.887 194.752 20.391 195.292 21.219H195.364V16.593H197.884V29.625H195.472V28.383H195.4C194.824 29.391 193.726 29.859 192.484 29.859C190.054 29.859 188.29 27.933 188.29 24.873C188.29 21.813 190.054 19.887 192.43 19.887ZM193.186 27.933C194.59 27.933 195.508 26.871 195.508 24.873C195.508 22.875 194.59 21.813 193.186 21.813C191.764 21.813 190.846 22.875 190.846 24.873C190.846 26.871 191.764 27.933 193.186 27.933ZM204.189 19.887C207.195 19.887 209.049 21.813 209.049 24.873C209.049 27.933 207.195 29.859 204.189 29.859C201.165 29.859 199.311 27.933 199.311 24.873C199.311 21.813 201.165 19.887 204.189 19.887ZM204.189 27.969C205.593 27.969 206.475 26.925 206.475 24.873C206.475 22.821 205.593 21.777 204.189 21.777C202.767 21.777 201.867 22.821 201.867 24.873C201.867 26.925 202.767 27.969 204.189 27.969ZM214.91 27.969C216.26 27.969 216.782 26.961 216.998 26.115L219.554 26.421C219.14 28.005 217.898 29.859 214.91 29.859C211.958 29.859 210.14 27.933 210.14 24.873C210.14 21.813 211.958 19.887 214.91 19.887C217.88 19.887 219.05 21.741 219.392 22.893L216.944 23.433C216.746 22.749 216.224 21.777 214.91 21.777C213.56 21.777 212.696 22.821 212.696 24.873C212.696 26.925 213.56 27.969 214.91 27.969ZM228.897 22.659L226.575 22.983C226.377 22.047 225.621 21.561 224.703 21.561C223.785 21.561 223.137 21.957 223.137 22.677C223.137 23.379 223.839 23.559 224.811 23.739L225.783 23.883C227.493 24.171 229.149 24.675 229.149 26.817C229.149 28.887 227.259 29.859 224.775 29.859C222.291 29.859 220.563 28.707 220.239 26.853L222.597 26.529C222.831 27.663 223.623 28.185 224.811 28.185C225.873 28.185 226.593 27.717 226.593 26.907C226.593 26.241 225.873 25.971 224.793 25.791L223.749 25.629C222.219 25.377 220.617 24.837 220.617 22.785C220.617 20.967 222.453 19.887 224.685 19.887C226.917 19.887 228.591 21.003 228.897 22.659Z" fill="#B9AFD6"/>
</svg>
